# xmcd
#
# Track frame offsets:
#	150
#	18265
#	34599
#	50610
#	70494
#	88704
#	110036
#	133351
#	152744
#	169756
#	192425
#	216675
#	231882
#	247442
#	262522
#	279989
#	298734
#	318233
#
# Disc length: 4473 seconds
#
# Revision: 1
# Processed by: cddbd v1.5.2PL0 Copyright (c) Steve Scherf et al.
# Submitted via: audiograbber 1.83.01
#
DISCID=17117712
DTITLE=Diverse - Herzklopfen Vol.1
DYEAR=1999
DGENRE=Pop
TTITLE0=Sasha - If You Believe
TTITLE1=Jessica - How Will I Know (Who You Are)
TTITLE2=Backstreet Boys - As Long As You Love Me
TTITLE3=Robbie Williams - Angels
TTITLE4=Take That - Back For Good
TTITLE5=R. Kelly - I Believe I Can Fly
TTITLE6=Sinead O'Connor - Nothing Compares 2 You
TTITLE7=The Corrs - What Can I Do
TTITLE8=Mr. President - Where Do I Belong
TTITLE9=The Beloved - Sweet Harmony
TTITLE10=Phil Collins - Another Day In Paradise
TTITLE11=Donna Lewis - I Love You Always Forever
TTITLE12=Chris Rea - I Can Hear Your Heartbeat
TTITLE13=Jennifer Paige - Crush
TTITLE14=Shola Ama - You Might Need Somebody
TTITLE15=Simply Red - Stars
TTITLE16=Roxette - It Must Have Been Love
TTITLE17=X-Treme - Love Song
EXTD=
EXTT0=
EXTT1=
EXTT2=
EXTT3=
EXTT4=
EXTT5=
EXTT6=
EXTT7=
EXTT8=
EXTT9=
EXTT10=
EXTT11=
EXTT12=
EXTT13=
EXTT14=
EXTT15=
EXTT16=
EXTT17=
PLAYORDER=
